<svg xmlns="http://www.w3.org/2000/svg" width="1024" height="1024" viewBox="0 0 1024 1024" version="1.1">
	<path d="M 0 512.001 L 0 1024.002 512.250 1023.751 L 1024.500 1023.500 1024.751 511.750 L 1025.002 0 512.501 0 L 0 0 0 512.001 M 0.496 512.500 C 0.496 794.100, 0.610 909.151, 0.750 768.168 C 0.890 627.186, 0.890 396.786, 0.750 256.168 C 0.610 115.551, 0.496 230.900, 0.496 512.500 M 495.020 59.086 C 437.163 62.759, 384.311 84.801, 348.959 120 C 337.424 131.484, 330.326 140.829, 325.033 151.500 C 320.070 161.505, 318.045 170.172, 317.431 184.044 C 316.953 194.855, 312.933 216.085, 304.373 253 C 301.229 266.560, 296.232 285.284, 295.688 285.548 C 295.585 285.598, 293.486 286.219, 291.025 286.927 C 278.582 290.508, 268.586 297.294, 263.052 305.919 C 260.299 310.209, 259.365 310.929, 256.205 311.194 C 251.397 311.596, 250.004 314.411, 250.114 323.500 C 250.224 332.521, 251.058 335.424, 253.651 335.801 C 255.589 336.083, 255.758 336.942, 256.307 349.301 C 257.413 374.189, 263.626 388.869, 280.757 407.080 L 288.228 415.021 292.627 437.261 C 298.998 469.470, 300.790 481.470, 301.995 500 C 304.270 534.964, 309.713 570.311, 315.492 587.644 C 321.874 606.788, 332.482 625.113, 344.644 638.005 L 351.162 644.915 303.831 668.671 C 277.799 681.737, 255.184 693.018, 253.575 693.739 C 250.225 695.241, 249.276 694.635, 248.447 690.469 L 247.857 687.500 292.284 665.112 L 336.711 642.725 330.947 634.679 C 324.471 625.638, 311.533 601.904, 307.645 591.936 C 303.096 580.271, 296.071 533.944, 294.007 502 C 292.716 482.028, 290.093 465.559, 285.557 448.947 C 280.690 431.125, 278.769 424.898, 278.287 425.380 C 278.054 425.613, 278.545 428.097, 279.378 430.901 L 280.892 436 216.446 436 L 152 436 152.019 440.250 C 152.086 454.871, 158.159 501.103, 163.087 524.500 C 178.889 599.532, 206.340 664.814, 245.295 720 C 265.438 748.535, 283.159 769.276, 312.438 798.586 C 351.167 837.355, 387.044 866.794, 444.500 906.951 C 463.486 920.221, 509.388 950.828, 511.543 951.655 C 514.042 952.614, 588.489 901.731, 626 873.425 C 697.059 819.803, 750.374 765.063, 788.580 706.500 C 818.470 660.683, 840.159 609.929, 855.883 549 C 863.676 518.807, 868.455 490.231, 870.934 459 C 871.524 451.575, 872.245 443.363, 872.538 440.750 L 873.069 436 811.541 436 L 750.012 436 755.076 427.750 C 760.090 419.582, 760.180 419.501, 764.074 419.648 C 766.238 419.730, 768.234 419.430, 768.511 418.983 C 768.787 418.535, 766.959 418.290, 764.447 418.437 C 759.342 418.735, 759.121 418.988, 748.126 437.066 L 742.916 445.632 753.564 456.066 C 774.899 476.973, 785.644 493.885, 792.350 517.110 C 801.339 548.244, 796.970 587.386, 781.131 617.613 L 777.379 624.774 783.940 628.748 C 787.548 630.934, 793.968 634.606, 798.207 636.908 C 805.789 641.025, 805.896 641.137, 804.767 643.797 C 804.136 645.283, 803.317 646.866, 802.946 647.314 C 802.302 648.092, 765 629.396, 765 628.295 C 765 628.002, 767.452 623.878, 770.449 619.131 C 789.486 588.977, 794.343 547.750, 782.894 513.504 C 779.364 502.949, 772.568 489.750, 766.678 482.012 C 760.736 474.207, 746.869 459.938, 738.843 453.371 C 735.079 450.292, 732 447.312, 732 446.748 C 732 446.184, 735.804 439.005, 740.453 430.795 C 745.102 422.585, 749.788 413.509, 750.867 410.627 C 756.920 394.449, 758.106 363.830, 753.388 345.580 C 750.898 335.951, 746.331 328.081, 739.362 321.409 L 733 315.318 732.986 296.409 C 732.957 257.661, 730.342 230.202, 724.523 207.550 C 711.181 155.607, 677.886 112.220, 632.018 87.010 C 602.236 70.640, 571.406 62.015, 532 59.028 C 517.201 57.906, 513.501 57.912, 495.020 59.086 M 225.456 123.412 C 202.251 136.358, 178.501 149.985, 174.270 152.781 C 173.318 153.410, 173.513 155.267, 175.129 160.979 C 178.613 173.288, 176.553 179.880, 167.197 186.363 C 161.440 190.353, 152.162 193.946, 147.500 193.992 C 145.300 194.013, 142.848 194.443, 142.052 194.947 C 139.968 196.265, 148.268 195.253, 155.022 193.365 C 161.603 191.525, 170.223 185.916, 174.292 180.825 C 178.252 175.869, 178.782 170.353, 176.180 161.159 L 174.141 153.954 176.321 152.610 C 177.519 151.872, 183.450 148.343, 189.500 144.768 C 200.236 138.426, 205.673 135.369, 236.489 118.350 L 251.478 110.072 252.602 115.066 C 253.221 117.813, 254.077 120.384, 254.504 120.780 C 254.932 121.176, 254.925 120.150, 254.490 118.500 C 254.055 116.850, 253.429 113.886, 253.100 111.912 L 252.500 108.325 225.456 123.412 M 772.071 113.741 C 770.540 120.784, 764.785 135.564, 760.678 143 C 755.047 153.198, 739.431 175.420, 728.688 188.524 L 726.209 191.547 735.720 201.524 C 744.119 210.334, 744.370 210.528, 737.865 203.182 C 733.814 198.607, 729.906 194.030, 729.180 193.010 C 728.001 191.354, 728.867 189.838, 737.279 178.828 C 758.903 150.527, 768.007 134.079, 772.988 114.312 L 774.044 110.124 781.405 114.476 C 790.357 119.768, 795 122.202, 795 121.601 C 795 121.353, 790.837 118.796, 785.750 115.919 C 780.663 113.042, 775.785 110.079, 774.911 109.335 C 773.501 108.134, 773.182 108.628, 772.071 113.741 M 255.018 122.881 C 255.008 123.641, 256.882 128.555, 259.183 133.801 C 263.180 142.914, 270.933 155.743, 278.945 166.500 C 280.993 169.250, 285.953 175.924, 289.966 181.332 L 297.263 191.164 292.815 195.832 C 290.368 198.399, 286.018 203.279, 283.148 206.676 L 277.930 212.852 287.547 227.598 L 297.164 242.344 295.944 246.701 C 295.273 249.097, 294.928 251.261, 295.178 251.511 C 295.427 251.760, 296.203 249.733, 296.902 247.005 L 298.173 242.046 288.576 227.486 L 278.978 212.926 288.547 201.997 L 298.117 191.068 284.259 172.037 C 269.088 151.203, 263.501 142.048, 258.396 129.656 C 256.549 125.170, 255.028 122.121, 255.018 122.881 M 796.134 122.423 C 796.671 122.998, 817.565 135.046, 833 143.682 C 837.590 146.250, 849.184 153.086, 849.889 153.640 C 850.104 153.808, 849.541 156.575, 848.639 159.788 C 846.030 169.088, 846.437 174.922, 850.042 179.899 C 852.901 183.846, 864.004 192.036, 866.405 191.970 C 867.007 191.953, 866.600 191.434, 865.500 190.817 C 848.645 181.358, 845.009 174.007, 850.003 159.492 C 851.104 156.291, 851.892 153.594, 851.753 153.499 C 844.987 148.880, 794.489 120.665, 796.134 122.423 M 236.998 131.956 C 233.424 134.027, 220.965 141.206, 209.311 147.908 L 188.122 160.094 189.561 164.173 C 193.272 174.691, 190.128 184.758, 180.164 194.262 C 169.586 204.352, 156.990 208.959, 139.910 208.985 C 124.863 209.008, 111.446 204.757, 98 195.705 C 95.525 194.038, 87.786 187.057, 80.803 180.189 L 68.106 167.704 65.493 173.602 C 60.893 183.987, 55.119 202.230, 53.536 211.381 C 50.534 228.738, 51.975 249.339, 57.535 268.524 C 67.813 303.991, 96.352 336.505, 132.043 353.410 C 151.304 362.533, 171.658 367.901, 194.672 369.928 C 212.922 371.535, 215.907 371.414, 215.730 369.069 C 215.650 368.007, 215.260 367.339, 214.863 367.585 C 214.466 367.830, 212.156 365.437, 209.731 362.266 C 196.450 344.901, 190.971 330.178, 190.873 311.592 C 190.787 295.496, 195.638 281.424, 205.897 268 C 212.755 259.026, 233.874 238.232, 234.778 239.562 C 235.175 240.147, 240.726 248.022, 247.113 257.062 C 253.501 266.103, 260.855 276.726, 263.456 280.669 L 268.186 287.838 272.843 285.153 C 275.404 283.676, 279.975 281.367, 283 280.023 C 286.025 278.679, 288.620 277.516, 288.766 277.440 C 288.913 277.363, 290.100 273.520, 291.405 268.900 C 294.002 259.704, 295.438 251.708, 294.111 253.834 C 293.525 254.773, 291.072 251.815, 285.821 243.834 C 281.719 237.600, 274.977 227.746, 270.838 221.936 L 263.313 211.372 272.747 200.071 L 282.181 188.769 278.747 185.135 C 274.558 180.701, 268.069 172.083, 261.144 161.759 C 255.883 153.916, 245 132.784, 245 130.411 C 245 127.919, 243.444 128.220, 236.998 131.956 M 777.985 136.718 C 771.626 151.253, 763.139 164.627, 748.908 182.535 L 742.861 190.144 747.206 194.822 C 749.596 197.395, 753.709 202.320, 756.346 205.766 L 761.142 212.033 758.242 215.766 C 756.647 217.820, 752.269 224, 748.513 229.500 C 744.757 235, 741.036 240.032, 740.243 240.683 C 739.025 241.682, 738.972 243.435, 739.901 251.972 C 740.505 257.531, 741.050 267.123, 741.112 273.289 C 741.173 279.455, 741.511 288.760, 741.862 293.966 L 742.500 303.433 758.901 280.966 C 767.921 268.610, 778.496 254.128, 782.401 248.785 C 786.305 243.442, 789.767 239.055, 790.094 239.035 C 791.699 238.940, 819.935 269.289, 822.855 274.247 C 840.507 304.218, 836.844 335.601, 812.306 364.622 L 807.975 369.745 811.112 370.372 C 818.850 371.920, 841.276 370.083, 857.915 366.538 C 884.801 360.810, 910.802 347.024, 930.204 328.211 C 955.699 303.488, 968.574 277.028, 972.063 242.182 C 973.450 228.338, 972.481 215.901, 968.867 201.145 C 966.784 192.642, 958.664 170.280, 957.080 168.685 C 956.635 168.237, 952.069 172.413, 946.934 177.965 C 941.314 184.040, 937.059 187.853, 936.246 187.541 C 935.504 187.256, 935.128 187.399, 935.413 187.858 C 936.592 189.767, 924.602 198.506, 914.687 202.965 C 901.354 208.962, 883.917 210.719, 870.088 207.459 C 855.757 204.081, 842.051 194.384, 836.723 183.854 C 833.671 177.821, 833.074 168.884, 835.364 163.511 C 836.604 160.604, 836.528 160.453, 832.569 157.962 C 826.410 154.086, 784.723 130.196, 782.945 129.524 C 781.765 129.077, 780.569 130.812, 777.985 136.718 M 62.298 148.417 C 53.439 163.803, 45.739 184.411, 42.091 202.500 C 39.700 214.358, 38.593 233.714, 39.748 243.500 C 40.412 249.133, 40.582 246.887, 40.620 232 C 40.659 216.836, 41.068 211.606, 42.888 203 C 46.824 184.383, 55.573 161.179, 63.861 147.371 L 66.339 143.242 73.163 152.071 C 82.733 164.455, 95.413 176.817, 105.274 183.379 C 113.340 188.745, 125.155 194.059, 128.773 193.946 C 129.723 193.917, 128.025 193.091, 125 192.112 C 107.478 186.441, 88.027 170.670, 72.342 149.417 L 66.376 141.334 62.298 148.417 M 952.684 148.915 C 945.662 158.873, 932.078 173.038, 922.971 179.901 C 905.876 192.783, 890.104 197.228, 874.508 193.559 C 867.761 191.973, 865.768 192.260, 871.656 193.971 C 887.825 198.670, 905.758 194.186, 923 181.135 C 930.961 175.108, 946.080 159.613, 952.473 150.929 C 955.076 147.393, 957.664 144.500, 958.223 144.500 C 960.826 144.500, 972.879 171.916, 978.228 190 C 979.773 195.225, 980.764 197.711, 980.431 195.524 C 979.472 189.236, 975.207 176.412, 970.281 165 C 965.762 154.533, 959.057 141.961, 958.037 142.043 C 957.742 142.067, 955.333 145.160, 952.684 148.915 M 220.685 161.592 C 213.086 165.764, 206.644 169.765, 206.368 170.483 C 206.092 171.202, 206.009 173.397, 206.183 175.362 L 206.500 178.934 213.439 174.900 C 217.255 172.682, 224.455 168.799, 229.439 166.271 C 234.422 163.743, 238.657 161.554, 238.850 161.405 C 239.656 160.780, 236.746 154, 235.672 154.004 C 235.028 154.006, 228.283 157.420, 220.685 161.592 M 786.730 157.720 L 785.247 161.440 800.873 169.845 C 809.468 174.467, 817.091 178.478, 817.814 178.756 C 818.803 179.138, 819.050 178.180, 818.814 174.882 L 818.500 170.500 804 162.252 C 796.025 157.716, 789.211 154.004, 788.857 154.002 C 788.503 154.001, 787.546 155.674, 786.730 157.720 M 547 159.025 C 528.149 160.322, 491.657 167.959, 476.146 173.852 C 473.316 174.928, 471 175.646, 471 175.448 C 471 175.250, 472.338 172.818, 473.974 170.044 C 475.610 167.270, 476.680 165, 476.353 165 C 476.025 165, 466.776 169.613, 455.798 175.250 L 435.839 185.500 428.801 178.030 L 421.764 170.560 422.139 175.280 C 422.345 177.876, 422.409 180, 422.280 180 C 422.151 180, 416.635 177.395, 410.023 174.211 C 403.410 171.027, 398.014 168.665, 398.032 168.961 C 398.049 169.258, 398.724 170.374, 399.532 171.441 C 402.280 175.075, 401.407 176.204, 397.250 174.392 C 390.018 171.240, 374.439 166.178, 368.217 164.958 C 362.163 163.772, 361.808 163.817, 358.451 166.206 C 349.298 172.718, 337.432 192.601, 331.121 212 C 328.129 221.199, 317.995 261.513, 318.005 264.182 C 318.008 265.151, 320.058 265.523, 325.755 265.586 C 332.538 265.662, 335.114 266.294, 346.500 270.678 C 353.650 273.431, 365.350 278.418, 372.500 281.760 C 383.016 286.675, 386.861 287.970, 392.620 288.535 L 399.740 289.233 400.453 283.866 C 400.845 280.915, 401.958 276.025, 402.926 273 L 404.686 267.500 405.387 273.500 C 405.772 276.800, 406.337 281.653, 406.642 284.285 L 407.197 289.070 416.849 288.785 L 426.500 288.500 427.116 280.218 C 427.454 275.662, 427.920 271.746, 428.152 271.515 C 428.383 271.284, 430.097 274.898, 431.961 279.547 L 435.349 288 440.599 288 C 444.049 288, 449.388 286.765, 456.174 284.398 C 505.925 267.045, 526.488 261.070, 539 260.332 C 547.455 259.834, 547.548 259.854, 556.500 264.264 C 569.404 270.620, 587.009 285.396, 593.457 295.281 C 595.361 298.200, 594.950 300, 592.774 298.275 C 590.542 296.506, 575.780 291.069, 567.590 288.999 C 556.973 286.316, 553.970 286.502, 562.020 289.344 C 573.184 293.286, 580.257 298.256, 587.500 307.248 L 590.500 310.973 613 313.421 C 625.375 314.767, 638.538 316.176, 642.250 316.551 L 649 317.233 648.983 311.866 C 648.959 304.544, 645.828 293.059, 641.425 284.151 C 638.585 278.405, 635.288 274.188, 626.722 265.346 L 615.680 253.947 620.268 244.224 C 627.393 229.122, 628.526 220.285, 625.068 206.766 C 622.988 198.631, 618.535 189.011, 613.762 182.336 C 611.558 179.253, 609.058 177.400, 604.142 175.205 C 591.813 169.699, 570.410 165.013, 557.550 165.004 C 550.056 164.999, 551.049 163.739, 561.114 160.480 L 568.500 158.089 563 158.196 C 559.975 158.254, 552.775 158.627, 547 159.025 M 131.083 194.362 C 132.091 195.239, 140 195.720, 140 194.905 C 140 194.407, 137.900 194, 135.333 194 C 132.767 194, 130.854 194.163, 131.083 194.362 M 72.096 199.704 C 69.425 209.785, 68.899 213.470, 68.330 226.066 C 67.348 247.830, 71.367 266.238, 81.284 285.391 C 94.529 310.972, 120.407 333.455, 147.027 342.509 C 154.638 345.098, 175.862 349.471, 176.708 348.625 C 177.732 347.602, 175.863 346.111, 174.218 346.638 C 172.913 347.056, 172.823 346.958, 173.844 346.227 C 174.944 345.441, 174.712 343.945, 172.575 338.018 C 168.597 326.991, 166.675 314.091, 167.507 304 C 169.631 278.219, 181.333 254.103, 202.261 232.374 L 212.172 222.085 206 209.792 L 199.829 197.500 192.715 204.324 C 183.811 212.865, 174.704 218.320, 162.780 222.254 C 154.446 225.005, 152.175 225.326, 140.500 225.408 C 128.827 225.491, 126.584 225.209, 118.531 222.651 C 103.422 217.852, 94.293 212.573, 75.386 197.704 C 73.109 195.913, 73.099 195.920, 72.096 199.704 M 944.198 201.888 C 932.687 212.469, 918.022 219.869, 900.127 224.129 C 884.773 227.783, 866.596 225.478, 851.215 217.926 C 844.297 214.530, 832.041 205.214, 827.697 200.051 C 826.168 198.235, 824.763 196.918, 824.573 197.124 C 824.383 197.331, 821.508 202.943, 818.184 209.595 L 812.140 221.689 819.649 229.095 C 842.967 252.090, 857 281.728, 857 307.978 C 857 320.684, 851.220 344.882, 847.623 347.235 C 845.427 348.671, 855.926 347.970, 865.207 346.060 C 886.213 341.738, 902.788 332.866, 919.262 317.127 C 943.487 293.984, 957.009 263.145, 956.996 231.074 C 956.991 218.300, 953.293 195.909, 951.211 196.047 C 950.820 196.073, 947.664 198.701, 944.198 201.888 M 981.218 202 C 981.228 203.375, 981.580 205.850, 982 207.500 L 982.763 210.500 982.782 207.500 C 982.792 205.850, 982.440 203.375, 982 202 L 981.199 199.500 981.218 202 M 76.504 221.250 C 73.658 263.623, 100.711 310.301, 141.827 333.962 C 145.857 336.281, 149.367 337.966, 149.627 337.707 C 149.886 337.447, 146.814 335.406, 142.799 333.171 C 132.413 327.388, 128.078 324.306, 119.533 316.628 C 95.100 294.674, 78.560 261.506, 77.581 232.500 C 77.150 219.759, 77.808 212.771, 79.350 213.695 C 79.983 214.074, 79.882 213.623, 79.128 212.692 C 78.373 211.761, 77.629 211, 77.474 211 C 77.319 211, 76.883 215.613, 76.504 221.250 M 943 214.280 C 940.525 216.035, 935.800 218.930, 932.500 220.713 C 929.200 222.496, 926.852 223.965, 927.283 223.977 C 928.508 224.013, 937.032 219.425, 942 216.056 L 946.500 213.004 947.132 215.752 C 947.700 218.224, 947.775 218.124, 947.882 214.750 C 947.947 212.688, 947.888 211.020, 947.750 211.045 C 947.612 211.069, 945.475 212.525, 943 214.280 M 982.773 214.750 C 983.349 220.555, 983.834 220.978, 983.921 215.750 C 983.964 213.137, 983.640 211, 983.201 211 C 982.761 211, 982.569 212.688, 982.773 214.750 M 740.711 218.750 C 736.473 224.949, 736.171 225.786, 737.020 229 L 737.945 232.500 737.607 229 C 737.345 226.284, 738.097 224.268, 740.961 220 C 745.466 213.286, 746.232 212, 745.722 212 C 745.505 212, 743.249 215.037, 740.711 218.750 M 82.990 216.107 C 90.544 222.486, 113.152 230.378, 117.022 227.986 C 117.641 227.604, 115.526 227.049, 112.324 226.753 C 104.928 226.070, 96.441 223.074, 87.514 217.995 C 83.656 215.799, 81.621 214.950, 82.990 216.107 M 947.410 229.757 C 947.361 235.665, 946.568 244.062, 945.648 248.416 C 943.740 257.445, 937.518 273.584, 932.442 282.666 C 922.961 299.630, 907.417 316.591, 891.808 327.004 C 880.952 334.246, 880.082 334.965, 885.500 332.218 C 887.700 331.103, 892.650 327.852, 896.500 324.995 C 922.709 305.543, 942.599 273.778, 947.527 243.500 C 949.074 233.995, 949.517 218.996, 948.250 219.007 C 947.837 219.010, 947.460 223.848, 947.410 229.757 M 983.992 228.750 C 983.988 233.012, 983.566 240.100, 983.055 244.500 C 982.543 248.900, 981.888 254.525, 981.599 257 C 981.234 260.120, 981.512 259.507, 982.505 255 C 984.038 248.043, 985.748 221, 984.656 221 C 984.295 221, 983.997 224.488, 983.992 228.750 M 920 225.661 C 914.843 227.337, 902.640 227.911, 899.125 226.643 C 897.527 226.066, 896.962 226.129, 897.398 226.835 C 899.199 229.749, 915.956 228.898, 923.500 225.510 C 927.432 223.744, 925.661 223.820, 920 225.661 M 121.500 227 C 118.778 227.693, 118.732 227.768, 121 227.811 C 122.375 227.838, 124.400 227.473, 125.500 227 C 127.966 225.940, 125.664 225.940, 121.500 227 M 144.813 227.683 C 145.534 227.972, 146.397 227.936, 146.729 227.604 C 147.061 227.272, 146.471 227.036, 145.417 227.079 C 144.252 227.127, 144.015 227.364, 144.813 227.683 M 877.813 227.683 C 878.534 227.972, 879.397 227.936, 879.729 227.604 C 880.061 227.272, 879.471 227.036, 878.417 227.079 C 877.252 227.127, 877.015 227.364, 877.813 227.683 M 890.750 227.662 C 891.438 227.940, 892.563 227.940, 893.250 227.662 C 893.938 227.385, 893.375 227.158, 892 227.158 C 890.625 227.158, 890.063 227.385, 890.750 227.662 M 738.015 235.083 C 738.024 236.412, 738.473 238.175, 739.014 239 C 739.706 240.055, 739.807 239.462, 739.355 237 C 738.564 232.687, 737.995 231.874, 738.015 235.083 M 41.195 253.500 C 41.215 255.150, 41.439 255.704, 41.693 254.731 C 41.947 253.758, 41.930 252.408, 41.656 251.731 C 41.382 251.054, 41.175 251.850, 41.195 253.500 M 42.601 261 C 43.495 267.996, 49.392 284.828, 54.564 295.144 C 68.084 322.116, 91.867 346.649, 119.159 361.778 C 133.604 369.785, 159.546 378.996, 171.654 380.417 C 174.326 380.731, 172.013 379.908, 166.500 378.583 C 103.409 363.422, 60.209 323.254, 44.341 265 C 42.856 259.548, 42.232 258.114, 42.601 261 M 223.948 265.750 C 201.531 289.816, 196.693 312.151, 208.404 337.498 C 212.849 347.118, 218.498 355.066, 230.037 367.933 L 239.082 378.018 236.421 379.030 C 230.283 381.364, 215.562 383.110, 204.554 382.810 C 198.179 382.636, 193.425 382.886, 193.732 383.380 C 194.782 385.070, 223.927 383.350, 232.419 381.097 C 236.774 379.941, 240.497 378.836, 240.692 378.641 C 240.887 378.446, 237.714 374.735, 233.641 370.393 C 219.606 355.436, 212.307 345.087, 207.609 333.481 C 200.857 316.806, 202.107 299.055, 211.109 283.762 C 214.596 277.838, 231.164 258.986, 232.864 259.008 C 233.366 259.015, 253.451 288.098, 256.923 293.845 C 257.551 294.884, 258.802 294.374, 262.444 291.595 C 265.034 289.618, 266.684 288, 266.111 288 C 265.538 288, 263.552 289.332, 261.697 290.961 L 258.325 293.922 246.111 275.961 C 239.394 266.082, 233.283 258, 232.532 258 C 231.781 258, 227.919 261.488, 223.948 265.750 M 792.047 258 C 792.027 258.275, 795.611 262.224, 800.012 266.776 C 809.459 276.546, 814.325 283.571, 817.623 292.198 C 819.197 296.314, 819.816 297.286, 819.408 295 C 818.113 287.747, 811.884 278.035, 801.859 267.638 C 796.483 262.062, 792.068 257.725, 792.047 258 M 769.307 286.680 C 757.863 301.905, 748.197 314.813, 747.826 315.366 C 746.542 317.282, 744.113 313.906, 743.728 309.672 L 743.349 305.500 743.175 309.595 C 743.046 312.620, 743.542 314.181, 745.077 315.569 C 747.118 317.417, 747.186 317.407, 749.100 314.974 C 750.171 313.613, 759.655 301.025, 770.175 287 C 780.695 272.975, 789.739 260.938, 790.274 260.250 C 790.808 259.563, 790.990 259, 790.679 259 C 790.368 259, 780.750 271.456, 769.307 286.680 M 980.101 263.500 C 979.859 267.208, 972.168 288.717, 968.431 296.138 C 957.461 317.921, 937.663 340.428, 917.933 353.544 C 896.676 367.676, 866.450 378.659, 839.468 382.055 C 833.674 382.784, 824.280 383.083, 816.572 382.782 C 808.746 382.476, 805.306 382.589, 808 383.062 C 820.902 385.327, 844.731 383.351, 863.584 378.453 C 875.948 375.241, 895.404 367.577, 906.367 361.601 C 931.557 347.870, 954.427 324.573, 967.972 298.844 C 973.303 288.716, 981.411 265.975, 980.680 263.199 C 980.318 261.825, 980.207 261.883, 980.101 263.500 M 481.500 294.984 C 476 295.400, 455.855 296.325, 436.734 297.041 C 407.657 298.131, 398.410 298.120, 380.234 296.975 C 347.300 294.902, 306.396 294.609, 297.008 296.380 C 283.174 298.989, 274.521 304.664, 269.626 314.338 C 266.959 319.610, 266.603 319.910, 262.658 320.197 C 258.638 320.490, 258.490 320.625, 258.190 324.250 C 257.887 327.908, 257.963 328, 261.273 328 L 264.667 328 264.688 339.750 C 264.711 352.065, 265.767 359.185, 269.178 370 C 277.085 395.074, 297.675 411.081, 321.886 410.976 C 329.971 410.940, 335.314 409.488, 345.505 404.554 C 368.239 393.547, 381.313 377.485, 391.129 348.500 C 393.080 342.739, 393.500 339.464, 393.500 330 C 393.500 319.394, 393.287 318.096, 390.758 313.299 C 389.250 310.438, 386.437 306.838, 384.506 305.299 L 380.996 302.500 413.248 302 C 430.987 301.725, 445.725 301.674, 446 301.887 C 446.275 302.100, 445.959 302.468, 445.298 302.704 C 431.883 307.508, 428.337 328.001, 436.471 353.705 C 440.107 365.193, 447.737 376.869, 458.934 388.073 C 476.757 405.909, 497.418 415, 520.130 415 C 529 415, 540.704 412.876, 548.272 409.893 C 555.812 406.921, 566.209 399.807, 570.206 394.885 C 580.272 382.490, 586 361.288, 586 336.428 L 586 326 594.500 326 L 603 326 603 323.072 C 603 320.276, 602.754 320.113, 597.546 319.463 C 594.547 319.088, 590.230 318.959, 587.954 319.176 C 583.912 319.561, 583.762 319.463, 581.486 314.972 C 576.851 305.825, 567.412 299.729, 552.873 296.492 C 544.472 294.622, 499.022 293.662, 481.500 294.984 M 352.269 297.693 C 353.242 297.947, 354.592 297.930, 355.269 297.656 C 355.946 297.382, 355.150 297.175, 353.500 297.195 C 351.850 297.215, 351.296 297.439, 352.269 297.693 M 496.500 298.688 C 464.802 299.661, 450.729 302.443, 443.415 309.185 C 438.145 314.043, 437.007 317.570, 437.023 329 C 437.046 345.604, 441.946 360.027, 452.311 374 C 464.722 390.731, 483.313 403.704, 502 408.676 C 510.882 411.038, 529.195 411.003, 538 408.607 C 567.785 400.501, 580.171 380.609, 580.406 340.500 C 580.492 325.805, 580.312 324.092, 578.199 319.500 C 572.164 306.387, 561.389 301.207, 535.696 299.067 C 523.637 298.062, 518.494 298.012, 496.500 298.688 M 301.226 300.090 C 292.360 301.441, 284.372 304.669, 279.900 308.709 C 272.054 315.798, 268.239 329.601, 269.355 346.857 C 271.053 373.101, 282.309 393.021, 300.255 401.544 C 315.887 408.967, 327.853 408.487, 345.334 399.736 C 361.542 391.622, 374.992 376.948, 382.191 359.524 C 391.316 337.438, 391.507 318.606, 382.701 309.165 C 379.781 306.035, 373.753 302.986, 367 301.224 C 360.295 299.475, 310.863 298.623, 301.226 300.090 M 820.784 308.501 C 821.118 315.762, 820.793 320.282, 819.601 325.001 C 815.841 339.876, 805.222 356.709, 790.789 370.671 L 783.376 377.842 788.938 379.385 C 791.997 380.234, 796.525 381.170, 799 381.464 C 801.475 381.758, 799.722 381.109, 795.105 380.021 C 790.487 378.933, 786.491 377.824, 786.224 377.557 C 785.956 377.290, 788.403 374.467, 791.662 371.285 C 804.309 358.934, 814.226 344.402, 818.674 331.703 C 821.499 323.638, 822.872 307.929, 821.271 302 C 820.571 299.411, 820.445 301.102, 820.784 308.501 M 401 314.694 C 398.854 315.461, 397 318.065, 397 320.314 C 397 321.997, 397.213 322.069, 398.655 320.872 C 401.261 318.713, 420.502 318.995, 424.912 321.258 C 426.789 322.221, 428.510 322.824, 428.736 322.597 C 429.884 321.449, 425.694 316.089, 422.881 315.108 C 419.685 313.994, 403.800 313.693, 401 314.694 M 607.399 323.547 C 607.047 324.947, 607.039 326.372, 607.379 326.712 C 608.079 327.413, 608.732 327.441, 648.500 328.483 C 664.450 328.901, 677.211 328.937, 676.859 328.563 C 675.340 326.955, 624.621 321.020, 612.269 321.005 C 608.568 321.001, 607.958 321.319, 607.399 323.547 M 590.813 324.683 C 591.534 324.972, 592.397 324.936, 592.729 324.604 C 593.061 324.272, 592.471 324.036, 591.417 324.079 C 590.252 324.127, 590.015 324.364, 590.813 324.683 M 653.813 326.683 C 654.534 326.972, 655.397 326.936, 655.729 326.604 C 656.061 326.272, 655.471 326.036, 654.417 326.079 C 653.252 326.127, 653.015 326.364, 653.813 326.683 M 707.493 327.056 C 700.241 329.167, 685.304 344.311, 676.480 358.500 L 672.127 365.500 671.033 382 C 670.431 391.075, 669.073 409.075, 668.016 422 C 666.959 434.925, 665.787 450.052, 665.413 455.616 L 664.733 465.732 669.616 467.616 C 676.609 470.314, 686.209 470.083, 691.955 467.079 C 697.291 464.290, 706.603 455.621, 712.574 447.886 C 718.295 440.474, 734.441 412.200, 736.511 405.967 C 739.122 398.105, 740.993 384.335, 740.989 373 C 740.981 352.839, 737.736 341.587, 729.596 333.497 C 722.757 326.700, 715.740 324.655, 707.493 327.056 M 405.759 331.970 C 403.817 333.501, 402.403 336.226, 400.911 341.316 C 394.894 361.832, 390.989 373.651, 382.892 395.850 C 371.530 427.002, 371.365 430.224, 380.668 439.197 C 382.775 441.230, 387.650 444.643, 391.500 446.781 C 395.350 448.920, 400.769 452.103, 403.542 453.855 C 408.156 456.770, 408.870 456.941, 411.942 455.870 C 416.852 454.159, 426.472 455.851, 461.392 464.570 C 495.100 472.987, 500.134 475.055, 509.218 484.218 C 518.782 493.865, 524.680 508.808, 533.997 547 C 535.809 554.425, 537.403 560.640, 537.540 560.811 C 538.453 561.952, 579.890 539.139, 593.904 529.781 C 603.290 523.512, 620.357 506.417, 624.833 498.801 C 633.737 483.649, 641.709 454.974, 648.410 414 C 655.431 371.067, 655.891 350.927, 650.068 341.353 L 648.185 338.256 636.343 338.296 C 629.829 338.318, 617.934 337.992, 609.908 337.572 L 595.316 336.808 594.663 347.470 C 593.916 359.685, 590.899 375.643, 587.895 383.273 C 582.645 396.603, 571.399 409.864, 560.412 415.677 C 539.374 426.808, 510.887 427.617, 486 417.791 C 472.606 412.503, 463.365 406.317, 451.954 395 C 436.205 379.383, 429.748 367.887, 423.390 344.148 C 420.349 332.794, 419.087 331.221, 412.288 330.315 C 409.397 329.929, 407.851 330.321, 405.759 331.970 M 879.781 334.553 C 879.477 334.856, 874.339 337.102, 868.364 339.543 C 856.708 344.305, 855.395 345.644, 866.469 341.476 C 873.753 338.734, 881 335.245, 881 334.480 C 881 333.840, 880.461 333.873, 879.781 334.553 M 151.500 338.760 C 152.606 339.927, 169.472 346.035, 171.330 345.941 C 171.973 345.909, 168.450 344.404, 163.500 342.598 C 158.550 340.791, 153.600 338.952, 152.500 338.510 C 151.111 337.951, 150.805 338.028, 151.500 338.760 M 850.750 345.662 C 851.438 345.940, 852.563 345.940, 853.250 345.662 C 853.938 345.385, 853.375 345.158, 852 345.158 C 850.625 345.158, 850.063 345.385, 850.750 345.662 M 708.390 348.595 C 697.946 355.561, 690.628 365.097, 686.113 377.626 C 681.556 390.271, 681.527 390.639, 684.991 391.847 C 689.390 393.380, 694 401.136, 694 407.002 C 694 410.934, 693.249 412.678, 688.898 418.854 C 683.482 426.541, 681.669 432.691, 683.992 435.490 C 685.876 437.761, 688.690 437.311, 690.703 434.417 C 695.134 428.048, 698.336 425.102, 703.013 423.090 C 711.439 419.465, 717 409.278, 717 397.468 C 717 390.885, 715.695 387.180, 710.326 378.526 C 707.947 374.690, 706.011 370.865, 706.025 370.026 C 706.038 369.187, 707.618 366.363, 709.535 363.750 C 712.513 359.690, 713.516 359, 716.437 359 C 720.817 359, 724.332 363.098, 730.591 375.500 L 735.133 384.500 734.628 373 C 734.027 359.318, 732.194 353.256, 727.381 349.030 C 724.384 346.398, 723.165 346, 718.105 346 C 713.500 346, 711.464 346.544, 708.390 348.595 M 201.813 372.683 C 202.534 372.972, 203.397 372.936, 203.729 372.604 C 204.061 372.272, 203.471 372.036, 202.417 372.079 C 201.252 372.127, 201.015 372.364, 201.813 372.683 M 178.269 381.693 C 179.242 381.947, 180.592 381.930, 181.269 381.656 C 181.946 381.382, 181.150 381.175, 179.500 381.195 C 177.850 381.215, 177.296 381.439, 178.269 381.693 M 185.264 382.718 C 186.784 382.947, 189.034 382.941, 190.264 382.704 C 191.494 382.467, 190.250 382.279, 187.500 382.286 C 184.750 382.294, 183.744 382.488, 185.264 382.718 M 360.500 406.750 C 346.565 417.352, 334.751 421.367, 317.250 421.448 C 310.444 421.479, 306.004 421.895, 306.011 422.500 C 306.017 423.050, 308.278 434.975, 311.035 449 C 313.792 463.025, 316.995 482.324, 318.152 491.887 C 320.050 507.565, 320.627 510.071, 324.026 517.387 C 328.359 526.713, 328.006 527.163, 330.562 509.050 C 332.372 496.227, 334.549 489.533, 339.191 482.526 C 343.416 476.147, 347.121 473.643, 364.366 465.512 C 372.415 461.717, 378.999 458.362, 378.998 458.056 C 378.997 457.750, 377.007 456.243, 374.576 454.708 C 366.132 449.373, 359.073 439.345, 359.022 432.612 C 359.010 431.024, 361.067 423.724, 363.592 416.390 C 366.118 409.056, 368.031 402.688, 367.842 402.240 C 367.654 401.792, 364.350 403.821, 360.500 406.750 M 452.065 422.397 C 454.976 428.610, 455.994 432.057, 455.978 435.647 C 455.954 440.893, 453.163 448.129, 449.767 451.746 C 446.335 455.402, 448.543 455.531, 455.356 452.073 C 464.705 447.328, 468.005 443.990, 467.978 439.306 C 467.924 429.865, 456.548 414.019, 449.815 414.004 C 448.414 414.001, 448.793 415.416, 452.065 422.397 M 133.361 419.750 C 133.634 420.712, 134.142 425.775, 134.490 431 C 136.195 456.611, 140.761 498.572, 141.737 497.597 C 141.994 497.339, 141.715 493.387, 141.116 488.814 C 139.250 474.567, 137.170 453.211, 135.899 435.250 C 135.228 425.762, 134.271 418, 133.772 418 C 133.273 418, 133.088 418.788, 133.361 419.750 M 137 419.127 C 137 419.724, 139.629 420.012, 143.500 419.838 C 147.075 419.677, 150 419.226, 150 418.835 C 150 418.445, 147.075 418.125, 143.500 418.125 C 139.823 418.125, 137 418.560, 137 419.127 M 151 419 C 151 419.550, 151.900 420, 153 420 C 154.100 420, 155 419.550, 155 419 C 155 418.450, 154.100 418, 153 418 C 151.900 418, 151 418.450, 151 419 M 156 418.798 C 156 419.250, 159.151 419.664, 163.003 419.719 C 166.854 419.774, 169.789 419.467, 169.524 419.039 C 168.874 417.987, 156 417.758, 156 418.798 M 171 419.166 C 171 420.100, 193.599 419.734, 194.548 418.785 C 194.904 418.429, 189.751 418.191, 183.097 418.255 C 176.444 418.319, 171 418.729, 171 419.166 M 196 418.775 C 196 419.236, 205 419.680, 216 419.763 C 227 419.846, 236 419.596, 235.999 419.207 C 235.999 418.818, 226.999 418.373, 215.999 418.219 C 205 418.064, 196 418.314, 196 418.775 M 237 418.957 C 237 419.381, 240.375 419.806, 244.500 419.902 C 249.054 420.007, 252 419.674, 252 419.054 C 252 418.442, 248.991 418.063, 244.500 418.109 C 240.375 418.151, 237 418.533, 237 418.957 M 253 418.881 C 253 419.245, 257.500 419.613, 263 419.698 C 268.500 419.783, 273 419.548, 273 419.176 C 273 418.804, 268.500 418.437, 263 418.359 C 257.500 418.281, 253 418.516, 253 418.881 M 274.399 419.250 C 274.003 419.938, 274.062 420.152, 274.530 419.726 C 274.998 419.301, 275.977 420.201, 276.705 421.726 C 277.434 423.252, 277.798 423.676, 277.515 422.668 C 277.232 421.661, 277 420.198, 277 419.418 C 277 417.665, 275.371 417.560, 274.399 419.250 M 770.463 419.060 C 770.208 419.472, 785.074 419.805, 803.500 419.798 C 821.925 419.791, 837 419.439, 837 419.016 C 837 418.023, 771.077 418.066, 770.463 419.060 M 838 418.892 C 838 419.360, 847.788 419.766, 859.750 419.793 C 871.712 419.819, 883.443 419.877, 885.817 419.921 L 890.135 420 889.604 424.750 C 888.523 434.415, 886.789 462.868, 887.205 464.116 C 887.442 464.826, 888.195 457.553, 888.879 447.954 C 889.562 438.354, 890.357 427.776, 890.645 424.447 L 891.168 418.394 864.584 418.217 C 849.963 418.119, 838 418.423, 838 418.892 M 414.095 438.826 C 410.144 440.008, 409.443 442.191, 411.598 446.603 L 413.500 450.500 420.500 450.411 C 432.998 450.252, 442.814 447.120, 441.740 443.634 C 441.548 443.010, 439.616 441.604, 437.446 440.509 C 433.280 438.407, 418.951 437.374, 414.095 438.826 M 884.676 480 C 883.715 487.975, 882.657 496.525, 882.327 499 C 881.996 501.475, 881.975 503.274, 882.280 502.999 C 883.054 502.301, 887.198 469.239, 886.771 467.178 C 886.580 466.255, 885.637 472.025, 884.676 480 M 400.835 489.187 C 399.036 490.589, 394.697 491.843, 387.474 493.049 C 374.517 495.213, 366.694 498.795, 358.727 506.213 L 353.049 511.500 351.488 525.500 C 347.410 562.090, 348.875 577.568, 357.287 586.750 C 361.469 591.314, 372.508 588.182, 381.521 579.874 C 386.905 574.911, 388.270 572.555, 390.326 564.682 L 391.831 558.920 385.666 559.538 C 382.274 559.879, 378.938 560.332, 378.250 560.547 C 376.176 561.195, 376.827 559.746, 380.946 554.547 L 384.871 549.593 382.888 547.047 C 373.822 535.404, 373.418 534.434, 378.019 535.354 C 379.680 535.686, 397.455 535.988, 417.519 536.025 C 438.979 536.064, 454 536.470, 454 537.011 C 454 537.516, 452.988 538.465, 451.750 539.120 C 449.283 540.426, 442.081 545.965, 437.734 549.901 L 434.968 552.405 440.200 557.702 C 443.077 560.616, 445.142 563, 444.788 563 C 444.434 563, 439.949 561.876, 434.822 560.503 C 429.695 559.129, 425.328 558.004, 425.118 558.003 C 424.909 558.001, 424.955 561.403, 425.222 565.563 C 425.692 572.886, 425.848 573.272, 430.104 577.683 C 438.741 586.634, 449.968 592.017, 459.932 591.985 C 471.760 591.947, 485.358 586.272, 494.629 577.505 L 500 572.426 499.994 559.963 C 499.987 545.484, 497.866 529.746, 495.069 523.423 C 493.992 520.989, 490.805 516.559, 487.985 513.578 C 483.109 508.422, 482.062 507.862, 466.535 502.102 C 448.253 495.321, 437.239 493, 423.337 493 C 413.694 493, 408.682 491.735, 406.128 488.655 C 404.421 486.597, 404.122 486.627, 400.835 489.187 M 662 491.745 C 662 496.197, 658.288 516.830, 655.021 530.539 C 649.382 554.204, 645.691 560.720, 631 572.954 C 603.628 595.746, 554.252 630.504, 524.748 647.749 C 494.620 665.359, 470.173 672.986, 443.822 672.996 C 430.030 673.001, 421.432 671.759, 401.856 666.934 C 393.077 664.770, 385.693 663, 385.447 663 C 385.201 663, 385 672.895, 385 684.989 C 385 710.136, 385.471 712.312, 393.277 723.225 C 412.395 749.952, 445.428 764.149, 485 762.645 C 512.436 761.602, 536.031 754.122, 567.483 736.498 C 604.742 715.620, 636.354 688.181, 660.590 655.685 C 668.166 645.526, 685 618.252, 685 616.135 C 685 615.480, 683.717 612.368, 682.149 609.221 C 680.581 606.075, 678.781 600.800, 678.150 597.500 C 675.738 584.897, 673.914 557.226, 673.320 524.250 L 672.703 490 670.477 490 C 669.252 490, 666.844 489.719, 665.125 489.375 C 662.181 488.786, 662 488.924, 662 491.745 M 142.516 503.500 C 143.209 510.351, 148.251 536.738, 148.631 535.500 C 148.800 534.950, 147.379 526.400, 145.474 516.500 C 143.570 506.600, 142.238 500.750, 142.516 503.500 M 376.500 503.329 C 365.170 507.109, 362 509.932, 362 516.238 C 362 518.949, 362.337 520.994, 362.750 520.783 C 377.918 513.020, 382.219 512.311, 412.500 512.580 C 439.898 512.823, 444.999 513.515, 470 520.380 C 476.875 522.268, 482.591 523.726, 482.703 523.620 C 482.815 523.514, 482.244 521.169, 481.435 518.409 L 479.964 513.391 468.232 510.025 C 440.921 502.188, 440.166 502.090, 412.500 502.814 C 405.900 502.987, 396 502.873, 390.500 502.561 C 383.473 502.163, 379.311 502.392, 376.500 503.329 M 880.061 511.725 C 879.390 516.001, 877.301 526.438, 875.420 534.917 C 872.069 550.021, 871.585 552.756, 872.409 551.917 C 873.759 550.541, 882.645 505.312, 881.743 504.409 C 881.490 504.156, 880.733 507.448, 880.061 511.725 M 149.084 538 C 149 539.700, 156.842 570.176, 157.544 570.877 C 158.364 571.697, 158.048 570.231, 153.970 554.271 C 149.556 536.998, 149.193 535.789, 149.084 538 M 868.036 565.263 C 853.404 619.150, 829.133 672.861, 798.918 718.217 C 753.852 785.867, 690.797 846.751, 596.250 913.908 C 590.612 917.912, 586 921.393, 586 921.642 C 586 922.711, 613.549 902.893, 638.690 883.739 C 686.097 847.619, 725.017 811.593, 757.784 773.500 C 790.853 735.056, 813.534 700.941, 833.574 659.500 C 844.254 637.415, 852.777 616.620, 859.806 595.500 C 865.415 578.643, 872.407 554.074, 871.775 553.441 C 871.546 553.213, 869.864 558.533, 868.036 565.263 M 158.054 572.705 C 158.024 573.367, 160.518 581.692, 163.596 591.205 C 185.210 657.998, 216.547 714.107, 263.454 770 C 275.427 784.267, 278.760 787.837, 299.460 808.565 C 345.505 854.670, 393.443 892.600, 471.500 944.686 C 484.700 953.495, 499.223 963.028, 503.773 965.872 L 512.047 971.043 523.273 963.844 C 541.435 952.198, 585 923.022, 585 922.505 C 585 921.875, 583.099 923.097, 558.500 939.551 C 529.337 959.058, 513.638 969, 512 969 C 509.686 969, 472.433 944.721, 435.500 919.142 C 362.190 868.370, 298.066 811.598, 258.067 762.053 C 213.969 707.431, 186.618 657.507, 164.903 592 C 161.165 580.725, 158.083 572.042, 158.054 572.705 M 698.869 598.919 C 700.973 602.174, 703.269 606.891, 703.972 609.400 C 705.782 615.866, 707.580 617.054, 708.459 612.364 C 709.015 609.403, 708.591 607.582, 706.307 603.116 C 703.805 598.223, 698.418 593, 695.874 593 C 695.417 593, 696.765 595.663, 698.869 598.919 M 713.309 614.477 C 714.023 620.282, 713.849 624.225, 712.529 632.115 C 711.123 640.526, 711.060 642.419, 712.165 643.102 C 715.659 645.262, 718.959 634.724, 718.984 621.327 C 718.998 613.981, 718.738 612.842, 716.411 610.077 C 714.987 608.385, 713.500 607, 713.106 607 C 712.712 607, 712.803 610.364, 713.309 614.477 M 697.852 616.750 C 693.893 626.665, 693.053 632.969, 695.430 634.942 C 696.569 635.887, 697.067 635.743, 697.874 634.235 C 698.952 632.221, 700.409 614, 699.492 614 C 699.194 614, 698.456 615.237, 697.852 616.750 M 702.157 633.250 C 699.257 640.992, 695.162 656.238, 695.711 657.250 C 696.368 658.460, 699.663 658.111, 700.827 656.709 C 701.416 655.999, 703.271 651.320, 704.949 646.311 C 709.056 634.054, 708.953 627, 704.668 627 C 704.575 627, 703.445 629.813, 702.157 633.250 M 683.420 657.727 C 679.435 666.313, 679.052 667.728, 680.153 669.787 L 681.402 672.119 683.170 669.809 C 685.356 666.955, 692 651.730, 692 649.577 C 692 648.658, 691.151 648, 689.967 648 C 688.372 648, 686.962 650.095, 683.420 657.727 M 705.176 654.224 C 704.529 654.871, 704 655.804, 704 656.299 C 704 656.793, 701.975 661.207, 699.500 666.106 C 697.025 671.006, 695 675.701, 695 676.539 C 695 678.680, 697.891 679.548, 699.489 677.887 C 701.969 675.309, 708.996 660.519, 708.998 657.872 C 709.001 654.582, 706.861 652.539, 705.176 654.224 M 353.998 657.621 C 349.060 662.082, 342.483 674.797, 343.484 677.948 C 344.449 680.990, 346.148 679.271, 348.419 672.955 C 349.440 670.116, 351.681 665.926, 353.398 663.646 C 361.041 653.495, 361.286 651.036, 353.998 657.621 M 360.729 655.604 C 360.328 656.005, 360.014 657.271, 360.030 658.417 C 360.058 660.340, 360.141 660.363, 361.101 658.712 C 362.220 656.790, 361.934 654.400, 360.729 655.604 M 360.232 668.342 C 357.770 677.236, 357.546 679, 358.878 679 C 360.799 679, 361.865 676.149, 362.731 668.697 C 363.229 664.405, 363.379 660.734, 363.064 660.539 C 362.748 660.344, 361.474 663.856, 360.232 668.342 M 681.575 679.035 C 674.669 689.574, 673.790 692, 676.875 692 C 679.809 692, 692.897 672.261, 691.482 669.971 C 690.002 667.577, 687.704 669.679, 681.575 679.035 M 352.256 673.250 C 348.303 678.244, 344.825 699.500, 347.961 699.500 C 349.033 699.500, 349.867 696.838, 351.097 689.500 C 352.018 684, 353.274 678.233, 353.886 676.685 C 354.499 675.137, 355 673.449, 355 672.935 C 355 671.599, 353.419 671.780, 352.256 673.250 M 662.504 689.750 C 657.111 696.715, 655.033 700.192, 655.227 701.923 C 655.377 703.255, 655.950 704.483, 656.500 704.651 C 657.050 704.819, 660.313 701.219, 663.751 696.652 C 667.188 692.084, 671.126 687.291, 672.501 685.999 C 675.374 683.300, 675.684 681.477, 673.418 680.607 C 670.581 679.518, 670.139 679.889, 662.504 689.750 M 687.372 686.160 C 686.809 686.897, 685.158 689.975, 683.703 693 C 682.248 696.025, 678.545 701.825, 675.475 705.888 C 669.896 713.270, 669.201 716, 672.902 716 C 675.412 716, 680.831 709.393, 686.544 699.367 C 691.325 690.979, 691.722 689.370, 689.697 686.601 C 688.634 685.146, 688.207 685.065, 687.372 686.160 M 340.075 690.755 C 338.242 692.254, 337.797 694.184, 336.912 704.449 C 336.346 711.021, 336.169 717.546, 336.519 718.949 C 337.197 721.664, 339.752 725, 341.155 725 C 341.620 725, 342.020 719.038, 342.044 711.750 C 342.068 704.462, 342.459 696.578, 342.913 694.228 C 343.870 689.280, 343.072 688.304, 340.075 690.755 M 354.991 698.250 C 354.987 703.337, 354.699 709.862, 354.352 712.750 C 353.835 717.053, 353.995 718, 355.238 718 C 358.320 718, 359.263 715.017, 359.763 703.690 C 360.192 693.966, 360.026 692.168, 358.559 690.702 C 357.623 689.766, 356.439 689, 355.929 689 C 355.418 689, 354.996 693.163, 354.991 698.250 M 663.173 704.771 C 659.218 708.870, 648.546 722.870, 648.201 724.413 C 648.036 725.147, 648.676 726.046, 649.623 726.409 C 650.812 726.865, 652.570 725.898, 655.303 723.285 C 660.451 718.363, 671.100 703.970, 670.414 702.860 C 669.344 701.130, 665.778 702.070, 663.173 704.771 M 347.200 711.200 C 344.754 713.646, 346.497 735.562, 349.459 739.614 C 350.661 741.257, 350.801 741.241, 351.818 739.340 C 352.612 737.857, 352.515 734.947, 351.454 728.409 C 350.658 723.509, 350.006 717.362, 350.004 714.750 C 350 709.907, 349.335 709.065, 347.200 711.200 M 643.657 715.250 C 638.099 720.346, 628 733.057, 628 734.958 C 628 739, 632.285 736.376, 638.547 728.500 C 641.170 725.200, 644.930 720.794, 646.901 718.709 C 649.877 715.562, 650.232 714.758, 648.993 713.974 C 646.861 712.627, 646.398 712.737, 643.657 715.250 M 653.872 732.184 C 649.818 737.148, 645.416 742.531, 644.091 744.146 C 641.296 747.550, 642.332 749.635, 646.321 748.634 C 650.548 747.573, 664 730.636, 664 726.375 C 664 721.625, 661.170 723.247, 653.872 732.184 M 356 730.273 C 356 731.835, 360.510 749.621, 361.715 752.807 L 362.586 755.114 364.515 752.984 C 366.421 750.878, 366.418 750.758, 364.242 742.547 C 361.072 730.579, 360.347 729, 358.025 729 C 356.911 729, 356 729.573, 356 730.273 M 340.700 733.779 C 338.428 736.289, 338.543 741.671, 341.069 751.030 C 343.568 760.292, 346.236 765, 348.985 765 C 351.417 765, 351.499 763.619, 349.404 757.876 C 348.527 755.469, 346.592 748.640, 345.104 742.700 C 342.523 732.394, 342.322 731.986, 340.700 733.779 M 628.651 745.408 C 618.788 755.971, 615.742 761, 619.204 761 C 619.866 761, 625.788 755.620, 632.364 749.045 C 642.602 738.806, 644.135 736.867, 643.037 735.545 C 642.332 734.695, 641.203 734, 640.528 734 C 639.853 734, 634.509 739.133, 628.651 745.408 M 606.112 755.578 C 600.550 761.395, 596.007 766.458, 596.015 766.828 C 596.024 767.197, 596.461 768.175, 596.987 769 C 597.756 770.206, 600.189 768.263, 609.384 759.104 C 620.346 748.184, 622.292 745, 618.005 745 C 617.026 745, 611.674 749.760, 606.112 755.578 M 353.352 750.525 C 351.935 754.218, 361.915 776.500, 364.986 776.500 C 367.731 776.500, 367.071 773.564, 361.624 761.534 C 356.194 749.543, 354.562 747.371, 353.352 750.525 M 620.160 769.120 C 613.923 775.599, 609.112 781.372, 609.469 781.950 C 611.168 784.699, 614.732 782.561, 624.146 773.146 C 633.780 763.512, 635.563 760.435, 632.750 758.293 C 631.848 757.605, 628.344 760.619, 620.160 769.120 M 368 766.941 C 368 767.459, 368.422 768.143, 368.939 768.462 C 369.455 768.781, 371.343 771.604, 373.134 774.735 C 376.429 780.494, 382.583 788, 384.009 788 C 384.437 788, 385.074 787.249, 385.427 786.330 C 386.054 784.695, 379.283 773.280, 374.701 768.250 C 372.678 766.029, 368 765.115, 368 766.941 M 602.275 772.250 C 599.639 774.587, 594.707 778.678, 591.314 781.341 C 585.179 786.155, 583.482 788.352, 584.556 790.090 C 585.587 791.759, 586.985 791.044, 595.771 784.352 C 606.247 776.374, 613.103 769.975, 612.398 768.834 C 611.135 766.791, 606.768 768.265, 602.275 772.250 M 353.767 775.750 C 352.726 780.550, 357.317 789.102, 365.845 798.250 C 370.535 803.280, 372.020 803.886, 373.952 801.558 C 374.921 800.390, 374.413 799.299, 371.272 795.808 C 365.060 788.902, 361.362 783.800, 358.900 778.732 C 356.541 773.875, 354.439 772.654, 353.767 775.750 M 571.764 783.793 C 565.063 788.880, 561.389 792.351, 561.180 793.793 C 560.684 797.224, 562.755 796.514, 572 790.085 C 587.964 778.982, 589.346 777.834, 587.866 776.896 C 584.797 774.952, 581.612 776.316, 571.764 783.793 M 372 789.023 C 372 791.781, 390.445 810.254, 392.755 809.809 C 396.374 809.112, 394.745 806.154, 385.554 796.737 C 376.041 786.989, 372 784.690, 372 789.023 M 589.382 795.878 C 583.817 800.070, 577.140 804.981, 574.544 806.791 C 570.544 809.581, 570.017 810.315, 571.088 811.606 C 572.912 813.804, 576.049 812.703, 584.824 806.782 C 595.212 799.772, 601 794.279, 601 791.432 C 601 790.159, 600.663 788.924, 600.250 788.687 C 599.837 788.449, 594.947 791.685, 589.382 795.878 M 394.036 796.456 C 392.369 798.465, 393.118 799.333, 400.798 804.298 C 414.133 812.917, 417.123 814.419, 418.027 812.956 C 419.264 810.954, 417.513 808.449, 412.434 804.955 C 408.334 802.134, 396.218 795, 395.526 795 C 395.372 795, 394.701 795.655, 394.036 796.456 M 559 805.393 C 544.930 813.531, 542.106 816.160, 546.726 816.816 C 550.907 817.411, 579.869 800.215, 578.478 797.964 C 577.122 795.771, 572.757 797.436, 559 805.393 M 533.911 806.083 C 528.185 808.879, 522.712 811.874, 521.750 812.738 C 520.109 814.212, 519.281 818, 520.599 818 C 520.929 818, 525.992 815.709, 531.849 812.908 C 537.707 810.108, 544.188 807.134, 546.250 806.300 C 548.727 805.298, 550 804.141, 550 802.891 C 550 799.657, 545.070 800.635, 533.911 806.083 M 380.557 810.713 C 379.194 814.265, 385.157 819.676, 397.441 826.033 C 405.180 830.038, 410.580 831.020, 412.778 828.822 C 413.681 827.919, 411.692 826.490, 404.228 822.682 C 398.877 819.953, 391.498 815.790, 387.830 813.432 C 382.340 809.903, 381.052 809.421, 380.557 810.713 M 555 817.148 C 551.686 819.906, 536.842 827.278, 530.250 829.439 C 524.686 831.264, 524.086 831.996, 526.510 834.008 C 528.920 836.008, 535.275 834.576, 544.456 829.964 C 555.045 824.645, 560 820.648, 560 817.427 C 560 814.472, 558.326 814.379, 555 817.148 M 405 817.342 C 405 819.764, 429.399 829.967, 435.250 829.992 C 436.311 829.997, 437 829.245, 437 828.083 C 437 826.017, 436.516 825.800, 417.965 819.550 C 406.286 815.614, 405 815.395, 405 817.342 M 431.642 817.490 C 431.289 818.410, 431 819.317, 431 819.504 C 431 820.929, 455.830 826.260, 458.890 825.491 L 461.333 824.878 458.916 822.507 C 456.585 820.220, 449.602 818.309, 436.892 816.479 C 433.112 815.935, 432.169 816.116, 431.642 817.490 M 487.239 820.535 C 476.324 822.020, 475 822.443, 475 824.450 C 475 827.477, 483.883 827.635, 498 824.858 C 504.940 823.493, 507.080 822.373, 506.356 820.485 C 505.670 818.697, 500.656 818.710, 487.239 820.535 M 526.500 821.049 C 523.200 822.117, 516.900 823.724, 512.500 824.620 C 503.511 826.450, 498.668 828.536, 499.292 830.309 C 500.280 833.116, 521.024 829.271, 531.750 824.292 C 537.215 821.755, 538.093 820.633, 535.418 819.607 C 533.351 818.814, 533.466 818.795, 526.500 821.049 M 451 832.428 C 451 835.886, 478.872 838.030, 485.806 835.106 C 491.858 832.553, 487.847 831.665, 469.027 831.391 C 454.775 831.184, 451 831.401, 451 832.428 M 424.430 834.113 C 423.286 835.964, 425.294 839.225, 428.369 840.510 C 432.633 842.291, 447.189 845, 452.500 845 C 456.453 845, 462.332 842.006, 461 840.671 C 460.725 840.396, 455.775 839.631, 450 838.971 C 444.225 838.312, 436.235 836.745, 432.244 835.491 C 428.243 834.232, 424.738 833.615, 424.430 834.113 M 502 837.615 C 496.775 838.934, 488.563 840.303, 483.750 840.657 C 473.941 841.377, 472.303 842.975, 478.653 845.628 C 481.704 846.903, 483.635 846.976, 490.361 846.071 C 502.353 844.457, 509.764 842.116, 512.040 839.222 C 515.907 834.306, 515.416 834.228, 502 837.615" stroke="none" fill="#ffffff" fill-rule="evenodd"/>
</svg>